<svg fill="#000000" height="64px" width="64px" version="1.1" id="Layer_1" xmlns="http://www.w3.org/2000/svg" xmlns:xlink="http://www.w3.org/1999/xlink" viewBox="0 0 330.00 330.00" xml:space="preserve" stroke="#000000" stroke-width="0.0033" transform="rotate(0)matrix(1, 0, 0, 1, 0, 0)"><g id="SVGRepo_bgCarrier" stroke-width="0"></g><g id="SVGRepo_tracerCarrier" stroke-linecap="round" stroke-linejoin="round" stroke="#CCCCCC" stroke-width="1.98"></g><g id="SVGRepo_iconCarrier"> <path id="XMLID_223_" d="M325.606,154.394l-75-75.001c-4.289-4.291-10.743-5.572-16.347-3.252c-5.605,2.322-9.26,7.792-9.26,13.858 V150H15c-8.284,0-15,6.716-15,15s6.716,15,15,15h210v60c0,6.067,3.654,11.537,9.26,13.858c1.855,0.769,3.805,1.143,5.737,1.143 c3.903,0,7.74-1.524,10.609-4.395l75-75C331.465,169.749,331.465,160.252,325.606,154.394z"></path> </g></svg>